<?xml version="1.0" encoding="UTF-8" standalone="no"?><!DOCTYPE svg PUBLIC "-//W3C//DTD SVG 1.1//EN" "http://www.w3.org/Graphics/SVG/1.1/DTD/svg11.dtd"><svg width="100%" height="100%" viewBox="0 0 32 32" version="1.1" xmlns="http://www.w3.org/2000/svg" xmlns:xlink="http://www.w3.org/1999/xlink" xml:space="preserve" xmlns:serif="http://www.serif.com/" style="fill-rule:evenodd;clip-rule:evenodd;stroke-linejoin:round;stroke-miterlimit:2;"><path d="M17.902,2.453c-0.001,-0.001 -0.001,-0.002 -0.002,-0.003c-0.349,-0.733 -1.088,-1.2 -1.9,-1.2c-0.812,-0 -1.551,0.467 -1.9,1.2c-0.001,0.001 -0.001,0.002 -0.002,0.003c0,-0 -6.525,13.917 -6.525,19.87c-0,4.651 3.776,8.427 8.427,8.427c4.651,0 8.427,-3.776 8.427,-8.427c0,-5.953 -6.525,-19.87 -6.525,-19.87Z" style="fill:url(#_Linear1);"/><path d="M20.907,17.566c0.498,1.809 0.811,3.474 0.811,4.757c-0,3.155 -2.562,5.717 -5.718,5.717c-3.156,0 -5.718,-2.562 -5.718,-5.717c0,-0.467 0.04,-0.981 0.131,-1.532c0.058,-0.402 0.311,-0.751 0.677,-0.93c0.37,-0.182 0.806,-0.167 1.163,0.04c0.005,0.003 0.01,0.006 0.015,0.009c1.616,0.987 2.879,0.382 4.702,-1.44c0.759,-0.76 1.473,-1.313 2.153,-1.681c0.007,-0.004 0.015,-0.008 0.023,-0.012c0.335,-0.166 0.726,-0.173 1.067,-0.021c0.34,0.153 0.595,0.45 0.694,0.81l-0,0Z" style="fill:url(#_Linear2);"/><path d="M11.093,17.566c-0.498,1.809 -0.811,3.474 -0.811,4.757c0,3.155 2.562,5.717 5.718,5.717c3.156,0 5.718,-2.562 5.718,-5.717c-0,-0.467 -0.04,-0.981 -0.131,-1.532c-0.058,-0.402 -0.311,-0.751 -0.677,-0.93c-0.37,-0.182 -0.806,-0.167 -1.163,0.04c-0.005,0.003 -0.01,0.006 -0.015,0.009c-1.616,0.987 -2.879,0.382 -4.702,-1.44c-0.759,-0.76 -1.473,-1.313 -2.153,-1.681c-0.007,-0.004 -0.015,-0.008 -0.023,-0.012c-0.335,-0.166 -0.726,-0.173 -1.067,-0.021c-0.34,0.153 -0.595,0.45 -0.694,0.81l0,0Z" style="fill:url(#_Linear3);"/><defs><linearGradient id="_Linear1" x1="0" y1="0" x2="1" y2="0" gradientUnits="userSpaceOnUse" gradientTransform="matrix(1.91177e-15,31.2216,-31.2216,1.91177e-15,16.5314,23.2098)"><stop offset="0" style="stop-color:#56c2ef;stop-opacity:1"/><stop offset="1" style="stop-color:#1687c9;stop-opacity:1"/></linearGradient><linearGradient id="_Linear2" x1="0" y1="0" x2="1" y2="0" gradientUnits="userSpaceOnUse" gradientTransform="matrix(-1.8458,6.5,-6.5,-1.8458,19.3458,18)"><stop offset="0" style="stop-color:#e2f4fd;stop-opacity:1"/><stop offset="1" style="stop-color:#41b3e6;stop-opacity:1"/></linearGradient><linearGradient id="_Linear3" x1="0" y1="0" x2="1" y2="0" gradientUnits="userSpaceOnUse" gradientTransform="matrix(1.56515e-15,25.5609,-25.5609,1.56515e-15,16,23)"><stop offset="0" style="stop-color:#e2f4fd;stop-opacity:1"/><stop offset="1" style="stop-color:#41b3e6;stop-opacity:1"/></linearGradient></defs></svg>