<?xml version="1.0" encoding="UTF-8" standalone="no"?><!DOCTYPE svg PUBLIC "-//W3C//DTD SVG 1.1//EN" "http://www.w3.org/Graphics/SVG/1.1/DTD/svg11.dtd"><svg width="100%" height="100%" viewBox="0 0 32 32" version="1.1" xmlns="http://www.w3.org/2000/svg" xmlns:xlink="http://www.w3.org/1999/xlink" xml:space="preserve" xmlns:serif="http://www.serif.com/" style="fill-rule:evenodd;clip-rule:evenodd;stroke-linejoin:round;stroke-miterlimit:2;"><path d="M14.372,17.776l-0,-12.416c-0,-1.09 -0.433,-2.135 -1.204,-2.906c-0.771,-0.771 -1.816,-1.204 -2.906,-1.204c-1.09,0 -2.136,0.433 -2.907,1.204c-0.77,0.771 -1.203,1.816 -1.203,2.906c-0,0 -0,12.416 -0,12.416c-1.832,1.292 -3.029,3.425 -3.029,5.836c0,3.939 3.199,7.138 7.139,7.138c3.94,0 7.138,-3.199 7.138,-7.138c0,-2.411 -1.197,-4.544 -3.028,-5.836Z" style="fill:url(#_Linear1);"/><path d="M6.036,23.229c-0.088,0.132 -0.098,0.262 -0.098,0.397c-0,2.386 1.937,4.324 4.324,4.324c2.386,-0 4.324,-1.938 4.324,-4.324c-0,-0.357 -0.044,-0.704 -0.126,-1.036c0,-0 -0.053,-0.208 -0.218,-0.372c-0,0 -0.001,-0 -0.001,-0c-0.785,-0.785 -1.518,-1.061 -2.155,-1.089c-0.967,-0.043 -1.776,0.512 -2.355,1.091c-0.43,0.431 -1.224,0.809 -2.01,0.374c-0.361,-0.203 -0.808,-0.199 -1.17,0.013c-0.243,0.142 -0.423,0.364 -0.515,0.622Z" style="fill:url(#_Linear2);"/><path d="M14.487,23.229c0.088,0.132 0.099,0.262 0.099,0.397c-0,2.386 -1.938,4.324 -4.324,4.324c-2.387,-0 -4.324,-1.938 -4.324,-4.324c-0,-0.357 0.043,-0.704 0.125,-1.036c-0,-0 0.053,-0.208 0.218,-0.372c0,0 0.001,-0 0.001,-0c0.786,-0.785 1.519,-1.061 2.156,-1.089c0.966,-0.043 1.775,0.512 2.354,1.091c0.431,0.431 1.224,0.809 2.01,0.374c0.362,-0.203 0.808,-0.199 1.17,0.013c0.243,0.142 0.424,0.364 0.515,0.622Z" style="fill:url(#_Linear3);"/><path d="M14.372,15.25l-2.75,0c-0.414,0 -0.75,0.336 -0.75,0.75c-0,0.414 0.336,0.75 0.75,0.75l2.75,0l-0,-1.5Zm-0,-3.36l-2.75,-0c-0.414,-0 -0.75,0.336 -0.75,0.75c-0,0.414 0.336,0.75 0.75,0.75l2.75,-0l-0,-1.5Zm-0,-3.36l-2.75,0c-0.414,-0 -0.75,0.336 -0.75,0.75c-0,0.414 0.336,0.75 0.75,0.75l2.75,0l-0,-1.5Zm-0.005,-3.36l-2.745,-0c-0.414,-0 -0.75,0.336 -0.75,0.75c-0,0.414 0.336,0.75 0.75,0.75l2.75,-0l-0,-1.31c-0,-0.064 -0.002,-0.127 -0.005,-0.19Z" style="fill:url(#_Linear4);"/><path d="M20.992,3.978c-1.22,2.439 -3.297,6.593 -4.422,8.844c-0.284,0.566 -0.253,1.239 0.08,1.778c0.333,0.539 0.921,0.867 1.555,0.867c2.347,0 6.497,0 8.844,0c0.633,0 1.222,-0.328 1.555,-0.867c0.333,-0.539 0.363,-1.212 0.08,-1.778c-1.125,-2.251 -3.202,-6.405 -4.422,-8.844c-0.31,-0.62 -0.943,-1.011 -1.635,-1.011c-0.693,0 -1.326,0.391 -1.635,1.011l-0,-0Z" style="fill:url(#_Linear5);"/><path d="M21.877,6.974l-0,3.768c-0,0.414 0.336,0.75 0.75,0.75c0.414,0 0.75,-0.336 0.75,-0.75l-0,-3.768c-0,-0.414 -0.336,-0.75 -0.75,-0.75c-0.414,-0 -0.75,0.336 -0.75,0.75Z" style="fill:url(#_Linear6);"/><circle cx="22.627" cy="12.716" r="0.686" style="fill:url(#_Linear7);"/><defs><linearGradient id="_Linear1" x1="0" y1="0" x2="1" y2="0" gradientUnits="userSpaceOnUse" gradientTransform="matrix(9.18485e-16,15,-15,9.18485e-16,10.2617,25.5)"><stop offset="0" style="stop-color:#6dbeff;stop-opacity:1"/><stop offset="1" style="stop-color:#0085f0;stop-opacity:1"/></linearGradient><linearGradient id="_Linear2" x1="0" y1="0" x2="1" y2="0" gradientUnits="userSpaceOnUse" gradientTransform="matrix(-0.485869,1.94126,-1.94126,-0.485869,12.6217,21.8777)"><stop offset="0" style="stop-color:#e2f4fd;stop-opacity:1"/><stop offset="1" style="stop-color:#4dc4ff;stop-opacity:1"/></linearGradient><linearGradient id="_Linear3" x1="0" y1="0" x2="1" y2="0" gradientUnits="userSpaceOnUse" gradientTransform="matrix(-6.12323e-16,10,10,6.12323e-16,9.65166,25.5)"><stop offset="0" style="stop-color:#e2f4fd;stop-opacity:1"/><stop offset="1" style="stop-color:#4dc4ff;stop-opacity:1"/></linearGradient><linearGradient id="_Linear4" x1="0" y1="0" x2="1" y2="0" gradientUnits="userSpaceOnUse" gradientTransform="matrix(1.26343e-15,20.6334,-20.6334,1.26343e-15,13.0952,13)"><stop offset="0" style="stop-color:#e2f4fd;stop-opacity:1"/><stop offset="1" style="stop-color:#4dc4ff;stop-opacity:1"/></linearGradient><linearGradient id="_Linear5" x1="0" y1="0" x2="1" y2="0" gradientUnits="userSpaceOnUse" gradientTransform="matrix(1.19403e-15,19.5,-19.5,1.19403e-15,24.5,11)"><stop offset="0" style="stop-color:#6dbeff;stop-opacity:1"/><stop offset="1" style="stop-color:#0085f0;stop-opacity:1"/></linearGradient><linearGradient id="_Linear6" x1="0" y1="0" x2="1" y2="0" gradientUnits="userSpaceOnUse" gradientTransform="matrix(5.26442e-16,8.59745,-8.59745,5.26442e-16,22.6268,11.9026)"><stop offset="0" style="stop-color:#e2f4fd;stop-opacity:1"/><stop offset="1" style="stop-color:#4dc4ff;stop-opacity:1"/></linearGradient><linearGradient id="_Linear7" x1="0" y1="0" x2="1" y2="0" gradientUnits="userSpaceOnUse" gradientTransform="matrix(5.26442e-16,8.59745,-8.59745,5.26442e-16,22.6268,11.9026)"><stop offset="0" style="stop-color:#e2f4fd;stop-opacity:1"/><stop offset="1" style="stop-color:#4dc4ff;stop-opacity:1"/></linearGradient></defs></svg>