<?xml version="1.0" encoding="UTF-8" standalone="no"?><!DOCTYPE svg PUBLIC "-//W3C//DTD SVG 1.1//EN" "http://www.w3.org/Graphics/SVG/1.1/DTD/svg11.dtd"><svg width="100%" height="100%" viewBox="0 0 32 32" version="1.1" xmlns="http://www.w3.org/2000/svg" xmlns:xlink="http://www.w3.org/1999/xlink" xml:space="preserve" xmlns:serif="http://www.serif.com/" style="fill-rule:evenodd;clip-rule:evenodd;stroke-linejoin:round;stroke-miterlimit:2;"><path d="M24.773,16.729l2.124,-0c0.414,-0 0.75,-0.336 0.75,-0.75c0,-0.414 -0.336,-0.75 -0.75,-0.75l-2.124,-0c-0.414,-0 -0.75,0.336 -0.75,0.75c-0,0.414 0.336,0.75 0.75,0.75Z" style="fill:url(#_Linear1);"/><path d="M26.147,14.916l0,2.125c0,0.414 0.336,0.75 0.75,0.75c0.414,-0 0.75,-0.336 0.75,-0.75l0,-2.125c0,-0.414 -0.336,-0.75 -0.75,-0.75c-0.414,0 -0.75,0.336 -0.75,0.75Z" style="fill:url(#_Linear2);"/><path d="M22.287,26.601c-0,-0.415 -0.336,-0.75 -0.75,-0.75l-13.13,-0c-0.414,-0 -0.75,0.335 -0.75,0.75l0,1.399c0,0.729 0.29,1.429 0.806,1.945c0.515,0.515 1.215,0.805 1.944,0.805l9.13,-0c0.729,-0 1.429,-0.29 1.944,-0.805c0.516,-0.516 0.806,-1.216 0.806,-1.945c-0,-0.739 -0,-1.399 -0,-1.399Z" style="fill:url(#_Linear3);"/><path d="M21.537,6.149c0.414,0 0.75,-0.335 0.75,-0.75c-0,0 -0,-0.66 -0,-1.399c-0,-0.729 -0.29,-1.429 -0.806,-1.945c-0.515,-0.515 -1.215,-0.805 -1.944,-0.805l-9.13,0c-0.729,0 -1.429,0.29 -1.944,0.805c-0.516,0.516 -0.806,1.216 -0.806,1.945c0,0.739 0,1.399 0,1.399c0,0.415 0.336,0.75 0.75,0.75l13.13,0Z" style="fill:url(#_Linear4);"/><path d="M25.523,7.399c-0,-1.518 -1.232,-2.75 -2.75,-2.75c-3.76,0 -11.842,0 -15.602,0c-1.518,0 -2.75,1.232 -2.75,2.75c0,4.038 0,13.121 0,17.159c0,1.519 1.232,2.75 2.75,2.75c3.76,-0 11.842,-0 15.602,-0c1.518,-0 2.75,-1.231 2.75,-2.75l-0,-17.159Z" style="fill:url(#_Linear5);"/><path d="M11.733,12.836c-2.159,0.107 -3.878,1.894 -3.878,4.079c-0,1.509 0.809,4.085 3.863,4.085c7.114,-0 7.114,0 7.114,-0c1.114,-0 1.96,-0.402 2.535,-1.02c0.573,-0.615 0.883,-1.459 0.883,-2.398c-0,0 -0,0 -0,0c-0,-1.672 -1.201,-3.064 -2.788,-3.359c-0.49,-1.854 -2.18,-3.223 -4.188,-3.223c-1.462,0 -2.756,0.725 -3.541,1.836Z" style="fill:url(#_Linear6);"/><path d="M25.523,23.444l-21.102,0l0,1.114c0,1.519 1.232,2.75 2.75,2.75c3.76,-0 11.842,-0 15.602,-0c1.518,-0 2.75,-1.231 2.75,-2.75l-0,-1.114Z" style="fill:url(#_Linear7);"/><path d="M4.421,8.556l21.102,-0l-0,-1.157c-0,-1.518 -1.232,-2.75 -2.75,-2.75c-3.76,0 -11.842,0 -15.602,0c-1.518,0 -2.75,1.232 -2.75,2.75l0,1.157Z" style="fill:url(#_Linear8);"/><defs><linearGradient id="_Linear1" x1="0" y1="0" x2="1" y2="0" gradientUnits="userSpaceOnUse" gradientTransform="matrix(-3.5729,4.37554e-16,-4.37554e-16,-3.5729,26.5,15.9786)"><stop offset="0" style="stop-color:#6d6daa;stop-opacity:1"/><stop offset="1" style="stop-color:#2a2a82;stop-opacity:1"/></linearGradient><linearGradient id="_Linear2" x1="0" y1="0" x2="1" y2="0" gradientUnits="userSpaceOnUse" gradientTransform="matrix(-3.5729,4.37554e-16,-4.37554e-16,-3.5729,26.5,15.9786)"><stop offset="0" style="stop-color:#6d6daa;stop-opacity:1"/><stop offset="1" style="stop-color:#2a2a82;stop-opacity:1"/></linearGradient><linearGradient id="_Linear3" x1="0" y1="0" x2="1" y2="0" gradientUnits="userSpaceOnUse" gradientTransform="matrix(4.97987e-16,-8.13274,8.13274,4.97987e-16,15.5884,29.3525)"><stop offset="0" style="stop-color:#e2f4fd;stop-opacity:1"/><stop offset="1" style="stop-color:#4dc4ff;stop-opacity:1"/></linearGradient><linearGradient id="_Linear4" x1="0" y1="0" x2="1" y2="0" gradientUnits="userSpaceOnUse" gradientTransform="matrix(4.50018e-16,7.34936,-7.34936,4.50018e-16,15.5,3.15064)"><stop offset="0" style="stop-color:#e2f4fd;stop-opacity:1"/><stop offset="1" style="stop-color:#4dc4ff;stop-opacity:1"/></linearGradient><linearGradient id="_Linear5" x1="0" y1="0" x2="1" y2="0" gradientUnits="userSpaceOnUse" gradientTransform="matrix(6.65839e-16,10.874,-10.874,6.65839e-16,16.3384,21.2197)"><stop offset="0" style="stop-color:#6dbeff;stop-opacity:1"/><stop offset="1" style="stop-color:#0085f0;stop-opacity:1"/></linearGradient><linearGradient id="_Linear6" x1="0" y1="0" x2="1" y2="0" gradientUnits="userSpaceOnUse" gradientTransform="matrix(7.58512e-16,12.3874,-12.3874,7.58512e-16,16,18)"><stop offset="0" style="stop-color:#e2f4fd;stop-opacity:1"/><stop offset="1" style="stop-color:#4dc4ff;stop-opacity:1"/></linearGradient><linearGradient id="_Linear7" x1="0" y1="0" x2="1" y2="0" gradientUnits="userSpaceOnUse" gradientTransform="matrix(8.3195e-16,-13.5868,13.5868,8.3195e-16,16.3384,25.0239)"><stop offset="0" style="stop-color:#e2f4fd;stop-opacity:1"/><stop offset="1" style="stop-color:#4dc4ff;stop-opacity:1"/></linearGradient><linearGradient id="_Linear8" x1="0" y1="0" x2="1" y2="0" gradientUnits="userSpaceOnUse" gradientTransform="matrix(1.26908e-15,20.7256,-20.7256,1.26908e-15,16,5.92374)"><stop offset="0" style="stop-color:#e2f4fd;stop-opacity:1"/><stop offset="1" style="stop-color:#4dc4ff;stop-opacity:1"/></linearGradient></defs></svg>