<?xml version="1.0" encoding="UTF-8" standalone="no"?><!DOCTYPE svg PUBLIC "-//W3C//DTD SVG 1.1//EN" "http://www.w3.org/Graphics/SVG/1.1/DTD/svg11.dtd"><svg width="100%" height="100%" viewBox="0 0 32 32" version="1.1" xmlns="http://www.w3.org/2000/svg" xmlns:xlink="http://www.w3.org/1999/xlink" xml:space="preserve" xmlns:serif="http://www.serif.com/" style="fill-rule:evenodd;clip-rule:evenodd;stroke-linejoin:round;stroke-miterlimit:2;"><path d="M15.04,4.847l1.922,-0.001l0.004,0.002c0.365,0.191 0.817,0.052 1.01,-0.312c0.167,-0.313 0.261,-0.67 0.261,-1.049c0,-1.235 -1.002,-2.237 -2.237,-2.237c-1.235,0 -2.237,1.002 -2.237,2.237c-0,0.38 0.095,0.738 0.262,1.051c0.195,0.365 0.649,0.504 1.015,0.309Z" style="fill:url(#_Linear1);"/><path d="M13.276,27.119c-0.122,-0 -0.073,-0 0,-0c0.008,-0 0.015,-0 0.023,-0.001c0.491,-0.012 0.885,-0.414 0.885,-0.908l0,-11.249c0,-0.362 0.259,-0.672 0.614,-0.738c0.39,-0.072 0.792,-0.109 1.202,-0.109c0.411,-0 0.812,0.037 1.202,0.109c0.356,0.066 0.614,0.376 0.614,0.738c-0,-0 -0,11.249 -0,11.249c-0,2.508 -2.033,4.54 -4.54,4.54c0,-0 -0,-0 -0,-0c-1.204,0 -2.359,-0.478 -3.21,-1.33c-0.852,-0.851 -1.33,-2.006 -1.33,-3.21c0,-0.953 0,-1.79 0,-1.79c0,-1.002 0.814,-1.816 1.816,-1.816c1.002,0 1.816,0.814 1.816,1.816c-0,-0 -0,0.837 -0,1.79c-0,0.241 0.095,0.472 0.266,0.643c0.17,0.17 0.401,0.266 0.642,0.266Z" style="fill:url(#_Linear2);"/><path d="M13.276,28.619c-0.143,-0 -0,-0 -0,-0l0,-0c1.33,-0 2.408,-1.078 2.408,-2.408l0,-10.588c0.105,-0.006 0.21,-0.009 0.316,-0.009l0.316,0.009l-0,10.587c-0,1.679 -1.361,3.04 -3.04,3.04l-0,-0c-0.806,0 -1.58,-0.32 -2.15,-0.89c-0.57,-0.57 -0.89,-1.343 -0.89,-2.15c0,-0.953 0,-1.79 0,-1.79c0,-0.174 0.142,-0.316 0.316,-0.316c0.174,0 0.316,0.142 0.316,0.316c-0,-0 -0,0.837 -0,1.79c-0,0.639 0.253,1.252 0.705,1.703c0.451,0.452 1.064,0.706 1.703,0.706Z" style="fill:url(#_Linear3);"/><path d="M4.085,15.201c-0.008,0.055 -0.009,0.111 -0.004,0.168c0.025,0.266 0.186,0.499 0.424,0.616l0.085,0.038c0.9,0.383 1.917,0.385 2.819,0.006c0.014,-0.005 0.027,-0.011 0.04,-0.018c0.558,-0.273 1.187,-0.397 1.845,-0.397c0.69,-0 1.349,0.137 1.95,0.387c0.89,0.383 1.907,0.384 2.805,-0c0.601,-0.25 1.26,-0.387 1.951,-0.387c0.691,-0 1.35,0.137 1.95,0.387c0.89,0.383 1.907,0.384 2.806,-0c0.601,-0.25 1.26,-0.387 1.95,-0.387c0.677,-0 1.322,0.132 1.913,0.372c0.791,0.332 1.679,0.363 2.494,0.093c0.114,0.005 0.215,-0.021 0.313,-0.063l0.153,-0.08c0.258,-0.165 0.385,-0.466 0.336,-0.757c-0.051,-6.532 -5.371,-11.819 -11.915,-11.819c-6.551,-0 -11.875,5.298 -11.915,11.841Z" style="fill:url(#_Linear4);"/><path d="M16,3.36c0.811,-0 1.636,0.534 2.31,1.626c1.214,1.97 2.078,5.93 2.078,10.499l-0,0.65c-0.802,0.243 -1.668,0.198 -2.438,-0.134c-0.6,-0.25 -1.259,-0.387 -1.95,-0.387c-0.691,-0 -1.35,0.137 -1.951,0.387c-0.776,0.332 -1.642,0.376 -2.437,0.135l0,-0.651c0,-4.569 0.864,-8.529 2.079,-10.499c0.673,-1.092 1.499,-1.626 2.309,-1.626Z" style="fill:url(#_Linear5);"/><defs><linearGradient id="_Linear1" x1="0" y1="0" x2="1" y2="0" gradientUnits="userSpaceOnUse" gradientTransform="matrix(3.51394e-16,5.73869,-5.73869,3.51394e-16,16.3157,2)"><stop offset="0" style="stop-color:#6dbeff;stop-opacity:1"/><stop offset="1" style="stop-color:#0085f0;stop-opacity:1"/></linearGradient><linearGradient id="_Linear2" x1="0" y1="0" x2="1" y2="0" gradientUnits="userSpaceOnUse" gradientTransform="matrix(4.15439e-16,-6.78464,6.78464,4.15439e-16,17.085,18.5675)"><stop offset="0" style="stop-color:#6dbeff;stop-opacity:1"/><stop offset="1" style="stop-color:#0085f0;stop-opacity:1"/></linearGradient><linearGradient id="_Linear3" x1="0" y1="0" x2="1" y2="0" gradientUnits="userSpaceOnUse" gradientTransform="matrix(3.10659e-16,-5.07344,5.07344,3.10659e-16,15.6844,17.7908)"><stop offset="0" style="stop-color:#e2f4fd;stop-opacity:1"/><stop offset="1" style="stop-color:#4dc4ff;stop-opacity:1"/></linearGradient><linearGradient id="_Linear4" x1="0" y1="0" x2="1" y2="0" gradientUnits="userSpaceOnUse" gradientTransform="matrix(7.34788e-16,12,-12,7.34788e-16,16.8186,13.5)"><stop offset="0" style="stop-color:#6dbeff;stop-opacity:1"/><stop offset="1" style="stop-color:#0085f0;stop-opacity:1"/></linearGradient><linearGradient id="_Linear5" x1="0" y1="0" x2="1" y2="0" gradientUnits="userSpaceOnUse" gradientTransform="matrix(8.94389e-16,14.6065,-14.6065,8.94389e-16,16.3157,12.8935)"><stop offset="0" style="stop-color:#e2f4fd;stop-opacity:1"/><stop offset="1" style="stop-color:#4dc4ff;stop-opacity:1"/></linearGradient></defs></svg>