<?xml version="1.0" encoding="UTF-8" standalone="no"?><!DOCTYPE svg PUBLIC "-//W3C//DTD SVG 1.1//EN" "http://www.w3.org/Graphics/SVG/1.1/DTD/svg11.dtd"><svg width="100%" height="100%" viewBox="0 0 32 32" version="1.1" xmlns="http://www.w3.org/2000/svg" xmlns:xlink="http://www.w3.org/1999/xlink" xml:space="preserve" xmlns:serif="http://www.serif.com/" style="fill-rule:evenodd;clip-rule:evenodd;stroke-linejoin:round;stroke-miterlimit:2;"><circle cx="12.357" cy="19.615" r="11.115" style="fill:url(#_Linear1);"/><path d="M12.357,8.5c-0.863,-0 -1.712,0.492 -2.43,1.462c-1.34,1.811 -2.297,5.45 -2.297,9.653c-0,4.202 0.957,7.842 2.297,9.653c0.718,0.97 1.567,1.461 2.43,1.461c0.864,0 1.713,-0.491 2.431,-1.461c1.34,-1.811 2.297,-5.451 2.297,-9.653c-0,-4.203 -0.957,-7.842 -2.297,-9.653c-0.718,-0.97 -1.567,-1.462 -2.431,-1.462Zm0,1.5c0.271,-0 0.522,0.134 0.765,0.345c0.335,0.291 0.64,0.72 0.919,1.254c0.946,1.807 1.544,4.728 1.544,8.016c-0,3.288 -0.598,6.208 -1.544,8.016c-0.279,0.533 -0.584,0.962 -0.919,1.253c-0.243,0.211 -0.494,0.345 -0.765,0.345c-0.27,0 -0.521,-0.134 -0.765,-0.345c-0.335,-0.291 -0.639,-0.72 -0.919,-1.253c-0.946,-1.808 -1.543,-4.728 -1.543,-8.016c-0,-3.288 0.597,-6.209 1.543,-8.016c0.28,-0.534 0.584,-0.963 0.919,-1.254c0.244,-0.211 0.495,-0.345 0.765,-0.345Z" style="fill:url(#_Linear2);"/><path d="M23.447,18.865l-22.179,-0c-0.017,0.247 -0.025,0.498 -0.025,0.75c-0,0.252 0.008,0.502 0.025,0.75l22.179,-0c0.017,-0.248 0.025,-0.498 0.025,-0.75c0,-0.252 -0.008,-0.503 -0.025,-0.75Z" style="fill:url(#_Linear3);"/><path d="M3.366,26.146c2.38,-1.111 5.563,-1.8 9.062,-1.8c3.447,-0 6.588,0.669 8.956,1.751c-0.303,0.422 -0.636,0.822 -0.994,1.197c-2.146,-0.908 -4.928,-1.448 -7.962,-1.448c-3.081,-0 -5.902,0.557 -8.062,1.491c-0.36,-0.373 -0.695,-0.771 -1,-1.191Z" style="fill:url(#_Linear4);"/><path d="M3.366,13.083c2.38,1.111 5.563,1.801 9.062,1.801c3.447,-0 6.588,-0.67 8.956,-1.752c-0.303,-0.422 -0.636,-0.822 -0.994,-1.197c-2.146,0.909 -4.928,1.449 -7.962,1.449c-3.081,-0 -5.902,-0.557 -8.062,-1.491c-0.36,0.372 -0.695,0.77 -1,1.19Z" style="fill:url(#_Linear5);"/><path d="M30.983,8.467c0.677,-1.604 0.506,-3.441 -0.457,-4.893c-0.962,-1.451 -2.588,-2.324 -4.33,-2.324c-0.002,0 -0.004,0 -0.005,0c-1.745,0 -3.374,0.875 -4.337,2.33c-0.963,1.455 -1.133,3.296 -0.451,4.902c1.008,2.376 2.109,4.972 2.917,6.876c0.32,0.754 1.059,1.243 1.878,1.242c0.818,-0 1.557,-0.491 1.875,-1.245l2.91,-6.888Z" style="fill:url(#_Linear6);"/><path d="M27.644,7.345c-0.085,0.046 -0.183,0.072 -0.287,0.072c-0.335,0 -0.607,-0.272 -0.607,-0.607c-0,-0.335 0.272,-0.607 0.607,-0.607c0.104,-0 0.202,0.026 0.287,0.072c0.364,0.196 0.82,0.06 1.016,-0.304c0.197,-0.364 0.06,-0.82 -0.304,-1.016c-0.297,-0.161 -0.638,-0.252 -0.999,-0.252c-1.163,-0 -2.107,0.944 -2.107,2.107c-0,1.163 0.944,2.107 2.107,2.107c0.361,0 0.702,-0.091 0.999,-0.252c0.364,-0.196 0.501,-0.651 0.304,-1.016c-0.196,-0.364 -0.652,-0.5 -1.016,-0.304Z" style="fill:url(#_Linear7);"/><circle cx="24.397" cy="5.453" r="0.75" style="fill:url(#_Linear8);"/><defs><linearGradient id="_Linear1" x1="0" y1="0" x2="1" y2="0" gradientUnits="userSpaceOnUse" gradientTransform="matrix(1.01168e-15,16.5219,-16.5219,1.01168e-15,13,25.9781)"><stop offset="0" style="stop-color:#6dbeff;stop-opacity:1"/><stop offset="1" style="stop-color:#0085f0;stop-opacity:1"/></linearGradient><linearGradient id="_Linear2" x1="0" y1="0" x2="1" y2="0" gradientUnits="userSpaceOnUse" gradientTransform="matrix(1.92666e-15,31.4648,-31.4648,1.92666e-15,12.4282,24.3456)"><stop offset="0" style="stop-color:#e2f4fd;stop-opacity:1"/><stop offset="1" style="stop-color:#7ff;stop-opacity:1"/></linearGradient><linearGradient id="_Linear3" x1="0" y1="0" x2="1" y2="0" gradientUnits="userSpaceOnUse" gradientTransform="matrix(1.92666e-15,31.4648,-31.4648,1.92666e-15,12.4282,24.3456)"><stop offset="0" style="stop-color:#e2f4fd;stop-opacity:1"/><stop offset="1" style="stop-color:#7ff;stop-opacity:1"/></linearGradient><linearGradient id="_Linear4" x1="0" y1="0" x2="1" y2="0" gradientUnits="userSpaceOnUse" gradientTransform="matrix(1.92666e-15,31.4648,-31.4648,1.92666e-15,12.4282,24.3456)"><stop offset="0" style="stop-color:#e2f4fd;stop-opacity:1"/><stop offset="1" style="stop-color:#7ff;stop-opacity:1"/></linearGradient><linearGradient id="_Linear5" x1="0" y1="0" x2="1" y2="0" gradientUnits="userSpaceOnUse" gradientTransform="matrix(1.92666e-15,31.4648,-31.4648,1.92666e-15,12.4282,24.3456)"><stop offset="0" style="stop-color:#e2f4fd;stop-opacity:1"/><stop offset="1" style="stop-color:#7ff;stop-opacity:1"/></linearGradient><linearGradient id="_Linear6" x1="0" y1="0" x2="1" y2="0" gradientUnits="userSpaceOnUse" gradientTransform="matrix(1.21068e-15,19.7719,-19.7719,1.21068e-15,26.1909,11.2281)"><stop offset="0" style="stop-color:#41b3e6;stop-opacity:1"/><stop offset="1" style="stop-color:#0090af;stop-opacity:1"/></linearGradient><linearGradient id="_Linear7" x1="0" y1="0" x2="1" y2="0" gradientUnits="userSpaceOnUse" gradientTransform="matrix(4.89859e-16,8,-8,4.89859e-16,26.1909,7.5)"><stop offset="0" style="stop-color:#e2f4fd;stop-opacity:1"/><stop offset="1" style="stop-color:#4dc4ff;stop-opacity:1"/></linearGradient><linearGradient id="_Linear8" x1="0" y1="0" x2="1" y2="0" gradientUnits="userSpaceOnUse" gradientTransform="matrix(4.89859e-16,8,-8,4.89859e-16,26.1909,7.5)"><stop offset="0" style="stop-color:#e2f4fd;stop-opacity:1"/><stop offset="1" style="stop-color:#4dc4ff;stop-opacity:1"/></linearGradient></defs></svg>