<?xml version="1.0" encoding="UTF-8" standalone="no"?><!DOCTYPE svg PUBLIC "-//W3C//DTD SVG 1.1//EN" "http://www.w3.org/Graphics/SVG/1.1/DTD/svg11.dtd"><svg width="100%" height="100%" viewBox="0 0 32 32" version="1.1" xmlns="http://www.w3.org/2000/svg" xmlns:xlink="http://www.w3.org/1999/xlink" xml:space="preserve" xmlns:serif="http://www.serif.com/" style="fill-rule:evenodd;clip-rule:evenodd;stroke-linejoin:round;stroke-miterlimit:2;"><path d="M20.018,1.993l0,1.507c0,0.414 0.336,0.75 0.75,0.75c0.414,0 0.75,-0.336 0.75,-0.75l0,-1.507c0,-0.414 -0.336,-0.75 -0.75,-0.75c-0.414,-0 -0.75,0.336 -0.75,0.75Z" style="fill:url(#_Linear1);"/><path d="M26.781,4.173l-1.066,1.066c-0.293,0.293 -0.293,0.768 -0,1.061c0.292,0.293 0.768,0.293 1.06,0l1.067,-1.067c0.293,-0.292 0.293,-0.768 0,-1.06c-0.293,-0.293 -0.768,-0.293 -1.061,-0Z" style="fill:url(#_Linear2);"/><path d="M30.022,10.496l-1.507,0c-0.414,0 -0.75,0.336 -0.75,0.75c-0,0.414 0.336,0.75 0.75,0.75l1.507,0c0.414,0 0.75,-0.336 0.75,-0.75c0,-0.414 -0.336,-0.75 -0.75,-0.75Z" style="fill:url(#_Linear3);"/><path d="M13.695,5.233l1.066,1.067c0.293,0.293 0.768,0.293 1.061,0c0.293,-0.293 0.293,-0.768 0,-1.061l-1.067,-1.066c-0.292,-0.293 -0.768,-0.293 -1.06,-0c-0.293,0.292 -0.293,0.768 -0,1.06Z" style="fill:url(#_Linear4);"/><path d="M14.737,11.654c0.012,0.207 0.11,0.4 0.27,0.533c0.161,0.132 0.369,0.193 0.575,0.166c0.299,-0.039 0.604,-0.059 0.914,-0.059c2.752,-0 5.137,1.585 6.291,3.892c0.093,0.186 0.259,0.325 0.459,0.384c0.199,0.058 0.415,0.032 0.594,-0.074c1.778,-1.052 2.971,-2.99 2.971,-5.204c-0,-3.335 -2.708,-6.042 -6.043,-6.042c-3.334,-0 -6.042,2.707 -6.042,6.042c0,0.121 0.004,0.242 0.011,0.362Z" style="fill:url(#_Linear5);"/><path d="M9.284,14.769l-0.029,0c-4.41,0 -7.99,3.58 -7.99,7.991c-0,2.943 1.554,7.99 7.511,7.99c15.446,-0 15.446,0 15.446,-0c2.132,-0 3.76,-0.752 4.862,-1.935c1.099,-1.181 1.681,-2.806 1.681,-4.607c-0,-0 -0,-0 -0,-0c-0,-3.395 -2.586,-6.186 -5.895,-6.511c-0.76,-3.931 -4.223,-6.903 -8.374,-6.903c-3.034,-0 -5.7,1.586 -7.212,3.975Z" style="fill:url(#_Linear6);"/><path d="M14.838,19.953l0,5.844c0,0.414 0.336,0.75 0.75,0.75c0.414,-0 0.75,-0.336 0.75,-0.75l0,-5.844c0,-0.414 -0.336,-0.75 -0.75,-0.75c-0.414,0 -0.75,0.336 -0.75,0.75Z" style="fill:url(#_Linear7);"/><path d="M15.588,23.547l2,-0c0.414,-0 0.75,-0.336 0.75,-0.75c0,-0.414 -0.336,-0.75 -0.75,-0.75l-2,-0c-0.414,-0 -0.75,0.336 -0.75,0.75c0,0.414 0.336,0.75 0.75,0.75Z" style="fill:url(#_Linear8);"/><path d="M15.588,20.703l2.516,0c0.414,0 0.75,-0.336 0.75,-0.75c0,-0.414 -0.336,-0.75 -0.75,-0.75l-2.516,0c-0.414,0 -0.75,0.336 -0.75,0.75c0,0.414 0.336,0.75 0.75,0.75Z" style="fill:url(#_Linear9);"/><circle cx="13.25" cy="19.953" r="0.75" style="fill:url(#_Linear10);"/><defs><linearGradient id="_Linear1" x1="0" y1="0" x2="1" y2="0" gradientUnits="userSpaceOnUse" gradientTransform="matrix(8.44406e-16,13.7902,-13.7902,8.44406e-16,20.7683,2.5)"><stop offset="0" style="stop-color:#fcd935;stop-opacity:1"/><stop offset="1" style="stop-color:#c19f00;stop-opacity:1"/></linearGradient><linearGradient id="_Linear2" x1="0" y1="0" x2="1" y2="0" gradientUnits="userSpaceOnUse" gradientTransform="matrix(-8,8,-8,-8,26.7636,5)"><stop offset="0" style="stop-color:#fcd935;stop-opacity:1"/><stop offset="1" style="stop-color:#c19f00;stop-opacity:1"/></linearGradient><linearGradient id="_Linear3" x1="0" y1="0" x2="1" y2="0" gradientUnits="userSpaceOnUse" gradientTransform="matrix(-7.34706,8.99755e-16,-8.99755e-16,-7.34706,29.5204,11.2463)"><stop offset="0" style="stop-color:#fcd935;stop-opacity:1"/><stop offset="1" style="stop-color:#c19f00;stop-opacity:1"/></linearGradient><linearGradient id="_Linear4" x1="0" y1="0" x2="1" y2="0" gradientUnits="userSpaceOnUse" gradientTransform="matrix(8.5,8.5,-8.5,8.5,14.5,5)"><stop offset="0" style="stop-color:#fcd935;stop-opacity:1"/><stop offset="1" style="stop-color:#c19f00;stop-opacity:1"/></linearGradient><linearGradient id="_Linear5" x1="0" y1="0" x2="1" y2="0" gradientUnits="userSpaceOnUse" gradientTransform="matrix(-4.32315,9.30875,-9.30875,-4.32315,21.5,10.5)"><stop offset="0" style="stop-color:#fcd935;stop-opacity:1"/><stop offset="1" style="stop-color:#c19f00;stop-opacity:1"/></linearGradient><linearGradient id="_Linear6" x1="0" y1="0" x2="1" y2="0" gradientUnits="userSpaceOnUse" gradientTransform="matrix(2.46745e-15,40.2965,-40.2965,2.46745e-15,18.2818,25.625)"><stop offset="0" style="stop-color:#e2f4fd;stop-opacity:1"/><stop offset="1" style="stop-color:#4dc4ff;stop-opacity:1"/></linearGradient><linearGradient id="_Linear7" x1="0" y1="0" x2="1" y2="0" gradientUnits="userSpaceOnUse" gradientTransform="matrix(1.20794e-15,19.7271,-19.7271,1.20794e-15,15.5,21.7729)"><stop offset="0" style="stop-color:#56c2ef;stop-opacity:1"/><stop offset="1" style="stop-color:#0094d1;stop-opacity:1"/></linearGradient><linearGradient id="_Linear8" x1="0" y1="0" x2="1" y2="0" gradientUnits="userSpaceOnUse" gradientTransform="matrix(1.20794e-15,19.7271,-19.7271,1.20794e-15,15.5,21.7729)"><stop offset="0" style="stop-color:#56c2ef;stop-opacity:1"/><stop offset="1" style="stop-color:#0094d1;stop-opacity:1"/></linearGradient><linearGradient id="_Linear9" x1="0" y1="0" x2="1" y2="0" gradientUnits="userSpaceOnUse" gradientTransform="matrix(1.20794e-15,19.7271,-19.7271,1.20794e-15,15.5,21.7729)"><stop offset="0" style="stop-color:#56c2ef;stop-opacity:1"/><stop offset="1" style="stop-color:#0094d1;stop-opacity:1"/></linearGradient><linearGradient id="_Linear10" x1="0" y1="0" x2="1" y2="0" gradientUnits="userSpaceOnUse" gradientTransform="matrix(1.20794e-15,19.7271,-19.7271,1.20794e-15,15.5,21.7729)"><stop offset="0" style="stop-color:#56c2ef;stop-opacity:1"/><stop offset="1" style="stop-color:#0094d1;stop-opacity:1"/></linearGradient></defs></svg>