<?xml version="1.0" encoding="UTF-8" standalone="no"?><!DOCTYPE svg PUBLIC "-//W3C//DTD SVG 1.1//EN" "http://www.w3.org/Graphics/SVG/1.1/DTD/svg11.dtd"><svg width="100%" height="100%" viewBox="0 0 32 32" version="1.1" xmlns="http://www.w3.org/2000/svg" xmlns:xlink="http://www.w3.org/1999/xlink" xml:space="preserve" xmlns:serif="http://www.serif.com/" style="fill-rule:evenodd;clip-rule:evenodd;stroke-linejoin:round;stroke-miterlimit:2;"><path d="M25.002,24.094c0,-0.414 -0.336,-0.75 -0.75,-0.75l-16.436,0c-0.414,0 -0.75,0.336 -0.75,0.75l0,2.537c0,1.519 1.232,2.75 2.75,2.75c3.161,0 9.276,0 12.436,0c1.519,0 2.75,-1.231 2.75,-2.75l0,-2.537Z" style="fill:url(#_Linear1);"/><path d="M30.772,5.415c0,-0.729 -0.29,-1.428 -0.805,-1.944c-0.516,-0.516 -1.216,-0.806 -1.945,-0.806c-5.159,0 -18.871,0 -24.029,0c-0.73,0 -1.429,0.29 -1.945,0.806c-0.516,0.516 -0.805,1.215 -0.805,1.944c-0,3.954 -0,12.726 -0,16.679c-0,0.73 0.289,1.429 0.805,1.945c0.516,0.516 1.215,0.805 1.945,0.805c5.158,0 18.87,0 24.029,0c0.729,0 1.429,-0.289 1.945,-0.805c0.515,-0.516 0.805,-1.215 0.805,-1.945l0,-16.679Z" style="fill:#6dbeff;"/><path d="M12.594,7.428c-2.24,0.104 -4.026,1.955 -4.026,4.219c0,1.56 0.837,4.223 3.994,4.223c7.41,0 7.41,0 7.41,0c1.149,0 2.023,-0.414 2.617,-1.052c0.592,-0.635 0.911,-1.507 0.911,-2.476c0,-0 0,-0 0,-0c0,-1.734 -1.249,-3.175 -2.897,-3.473c-0.501,-1.927 -2.254,-3.352 -4.338,-3.352c-1.518,-0 -2.861,0.755 -3.671,1.911Z" style="fill:url(#_Linear2);"/><path d="M30.772,18.16l-29.529,-0l-0,3.934c-0,0.73 0.289,1.429 0.805,1.945c0.516,0.516 1.215,0.805 1.945,0.805c5.158,0 18.87,0 24.029,0c0.729,0 1.429,-0.289 1.945,-0.805c0.515,-0.516 0.805,-1.215 0.805,-1.945l0,-3.934Z" style="fill:url(#_Linear3);"/><defs><linearGradient id="_Linear1" x1="0" y1="0" x2="1" y2="0" gradientUnits="userSpaceOnUse" gradientTransform="matrix(3.91187e-16,-6.38858,6.38858,3.91187e-16,17.6771,27.0826)"><stop offset="0" style="stop-color:#e2f4fd;stop-opacity:1"/><stop offset="1" style="stop-color:#4dc4ff;stop-opacity:1"/></linearGradient><linearGradient id="_Linear2" x1="0" y1="0" x2="1" y2="0" gradientUnits="userSpaceOnUse" gradientTransform="matrix(1.30941e-15,21.3843,-21.3843,1.30941e-15,17,12.1157)"><stop offset="0" style="stop-color:#e2f4fd;stop-opacity:1"/><stop offset="1" style="stop-color:#4dc4ff;stop-opacity:1"/></linearGradient><linearGradient id="_Linear3" x1="0" y1="0" x2="1" y2="0" gradientUnits="userSpaceOnUse" gradientTransform="matrix(1.48381e-15,24.2325,-24.2325,1.48381e-15,18.1593,21.7675)"><stop offset="0" style="stop-color:#e2f4fd;stop-opacity:1"/><stop offset="1" style="stop-color:#4dc4ff;stop-opacity:1"/></linearGradient></defs></svg>