<?xml version="1.0" encoding="UTF-8" standalone="no"?><!DOCTYPE svg PUBLIC "-//W3C//DTD SVG 1.1//EN" "http://www.w3.org/Graphics/SVG/1.1/DTD/svg11.dtd"><svg width="100%" height="100%" viewBox="0 0 32 32" version="1.1" xmlns="http://www.w3.org/2000/svg" xmlns:xlink="http://www.w3.org/1999/xlink" xml:space="preserve" xmlns:serif="http://www.serif.com/" style="fill-rule:evenodd;clip-rule:evenodd;stroke-linejoin:round;stroke-miterlimit:2;"><path d="M19.56,17.776c-1.832,1.292 -3.029,3.425 -3.029,5.836c0,3.939 3.199,7.138 7.139,7.138c3.94,0 7.138,-3.199 7.138,-7.138c0,-2.411 -1.197,-4.544 -3.028,-5.837c-0,0.001 -0,-12.415 -0,-12.415c-0,-1.09 -0.433,-2.135 -1.204,-2.906c-0.771,-0.771 -1.816,-1.204 -2.906,-1.204c-1.09,0 -2.135,0.433 -2.906,1.204c-0.771,0.771 -1.204,1.816 -1.204,2.906l-0,12.416Z" style="fill:url(#_Linear1);"/><path d="M19.69,22.218l-0.018,0.019c-0.202,0.214 -0.256,0.576 -0.201,0.353c-0.082,0.332 -0.125,0.679 -0.125,1.036c-0,2.386 1.937,4.324 4.324,4.324c2.386,-0 4.324,-1.938 4.324,-4.324c0,-0.135 -0.011,-0.265 -0.098,-0.397c-0.092,-0.258 -0.272,-0.48 -0.516,-0.622c-0.361,-0.212 -0.808,-0.216 -1.174,-0.011c-0.781,0.433 -1.575,0.055 -2.006,-0.376c-0.579,-0.579 -1.388,-1.134 -2.354,-1.091c-0.637,0.028 -1.37,0.304 -2.156,1.089Z" style="fill:url(#_Linear2);"/><path d="M27.65,22.218l0.018,0.019c0.202,0.214 0.256,0.576 0.201,0.353c0.082,0.332 0.125,0.679 0.125,1.036c0,2.386 -1.938,4.324 -4.324,4.324c-2.387,-0 -4.324,-1.938 -4.324,-4.324c-0,-0.135 0.01,-0.265 0.098,-0.397c0.092,-0.258 0.272,-0.48 0.516,-0.622c0.361,-0.212 0.808,-0.216 1.174,-0.011c0.781,0.433 1.575,0.055 2.006,-0.376c0.579,-0.579 1.388,-1.134 2.354,-1.091c0.637,0.028 1.37,0.304 2.156,1.089Z" style="fill:url(#_Linear3);"/><path d="M19.56,15.25l-0,1.5l2.75,0c0.414,0 0.75,-0.336 0.75,-0.75c-0,-0.414 -0.336,-0.75 -0.75,-0.75l-2.75,0Zm-0,-3.36l-0,1.5l2.75,-0c0.414,-0 0.75,-0.336 0.75,-0.75c-0,-0.414 -0.336,-0.75 -0.75,-0.75l-2.75,-0Zm-0,-3.36l-0,1.5l2.75,0c0.414,-0 0.75,-0.336 0.75,-0.75c-0,-0.414 -0.336,-0.75 -0.75,-0.75l-2.75,0Zm0.004,-3.36c-0.003,0.063 -0.004,0.126 -0.004,0.19l-0,1.31l2.75,-0c0.414,-0 0.75,-0.336 0.75,-0.75c-0,-0.414 -0.336,-0.75 -0.75,-0.75l-2.746,-0Z" style="fill:url(#_Linear4);"/><path d="M5.979,5.274c-2.624,0.084 -4.729,2.241 -4.729,4.885c0,1.804 0.963,4.887 4.614,4.887c8.826,0 8.826,0 8.826,0c1.323,0 2.329,-0.474 3.013,-1.208c0.681,-0.731 1.047,-1.736 1.047,-2.852c-0,0 -0,0 -0,0c-0,-2.025 -1.484,-3.705 -3.424,-4.01c-0.549,-2.28 -2.604,-3.976 -5.051,-3.976c-1.785,0 -3.361,0.902 -4.296,2.274Z" style="fill:url(#_Linear5);"/><path d="M5.49,18.819c-1.875,0.121 -3.36,1.682 -3.36,3.587c-0,1.329 0.716,3.595 3.406,3.595c6.068,-0 6.068,-0 6.068,-0c0.986,-0 1.734,-0.359 2.243,-0.906c0.507,-0.544 0.783,-1.29 0.783,-2.12l-0,0c-0,-1.456 -1.029,-2.673 -2.4,-2.961c-0.453,-1.594 -1.922,-2.764 -3.661,-2.764c-1.265,0 -2.387,0.618 -3.079,1.569Z" style="fill:url(#_Linear6);"/><defs><linearGradient id="_Linear1" x1="0" y1="0" x2="1" y2="0" gradientUnits="userSpaceOnUse" gradientTransform="matrix(5.81707e-16,9.5,-9.5,5.81707e-16,24.3972,27)"><stop offset="0" style="stop-color:#6dbeff;stop-opacity:1"/><stop offset="1" style="stop-color:#0085f0;stop-opacity:1"/></linearGradient><linearGradient id="_Linear2" x1="0" y1="0" x2="1" y2="0" gradientUnits="userSpaceOnUse" gradientTransform="matrix(1.37178,3.32863,-3.32863,1.37178,21.3099,21.3524)"><stop offset="0" style="stop-color:#e2f4fd;stop-opacity:1"/><stop offset="1" style="stop-color:#4dc4ff;stop-opacity:1"/></linearGradient><linearGradient id="_Linear3" x1="0" y1="0" x2="1" y2="0" gradientUnits="userSpaceOnUse" gradientTransform="matrix(-6.04544e-16,9.87296,9.87296,6.04544e-16,22.9427,25.5)"><stop offset="0" style="stop-color:#e2f4fd;stop-opacity:1"/><stop offset="1" style="stop-color:#4dc4ff;stop-opacity:1"/></linearGradient><linearGradient id="_Linear4" x1="0" y1="0" x2="1" y2="0" gradientUnits="userSpaceOnUse" gradientTransform="matrix(8.57952e-16,14.0114,-14.0114,8.57952e-16,21,13.389)"><stop offset="0" style="stop-color:#e2f4fd;stop-opacity:1"/><stop offset="1" style="stop-color:#4dc4ff;stop-opacity:1"/></linearGradient><linearGradient id="_Linear5" x1="0" y1="0" x2="1" y2="0" gradientUnits="userSpaceOnUse" gradientTransform="matrix(1.16688e-15,19.0566,-19.0566,1.16688e-15,10.2823,10.7335)"><stop offset="0" style="stop-color:#e2f4fd;stop-opacity:1"/><stop offset="1" style="stop-color:#4dc4ff;stop-opacity:1"/></linearGradient><linearGradient id="_Linear6" x1="0" y1="0" x2="1" y2="0" gradientUnits="userSpaceOnUse" gradientTransform="matrix(1.28588e-15,21,-21,1.28588e-15,8,22.5)"><stop offset="0" style="stop-color:#e2f4fd;stop-opacity:1"/><stop offset="1" style="stop-color:#4dc4ff;stop-opacity:1"/></linearGradient></defs></svg>