<?xml version="1.0" encoding="UTF-8" standalone="no"?><!DOCTYPE svg PUBLIC "-//W3C//DTD SVG 1.1//EN" "http://www.w3.org/Graphics/SVG/1.1/DTD/svg11.dtd"><svg width="100%" height="100%" viewBox="0 0 32 32" version="1.1" xmlns="http://www.w3.org/2000/svg" xmlns:xlink="http://www.w3.org/1999/xlink" xml:space="preserve" xmlns:serif="http://www.serif.com/" style="fill-rule:evenodd;clip-rule:evenodd;stroke-linejoin:round;stroke-miterlimit:2;"><path d="M30.665,8.488c0.678,-1.605 0.507,-3.442 -0.456,-4.893c-0.963,-1.452 -2.588,-2.324 -4.33,-2.324c-0.002,-0 -0.004,-0 -0.006,-0c-1.745,-0 -3.373,0.875 -4.336,2.33c-0.964,1.455 -1.133,3.296 -0.452,4.902c1.009,2.376 2.11,4.972 2.918,6.876c0.32,0.753 1.059,1.242 1.877,1.242c0.819,-0.001 1.558,-0.491 1.876,-1.245l2.909,-6.888Z" style="fill:url(#_Linear1);"/><circle cx="12.04" cy="19.635" r="11.115" style="fill:url(#_Linear2);"/><path d="M12.04,8.521c-0.863,-0 -1.713,0.491 -2.43,1.461c-1.34,1.811 -2.298,5.451 -2.298,9.653c0,4.203 0.958,7.842 2.298,9.653c0.717,0.97 1.567,1.462 2.43,1.462c0.863,0 1.713,-0.492 2.43,-1.462c1.34,-1.811 2.298,-5.45 2.298,-9.653c-0,-4.202 -0.958,-7.842 -2.298,-9.653c-0.717,-0.97 -1.567,-1.461 -2.43,-1.461Zm0,1.5c0.27,-0 0.522,0.134 0.765,0.345c0.335,0.291 0.64,0.72 0.919,1.253c0.946,1.808 1.544,4.728 1.544,8.016c-0,3.288 -0.598,6.209 -1.544,8.016c-0.279,0.534 -0.584,0.963 -0.919,1.254c-0.243,0.211 -0.495,0.345 -0.765,0.345c-0.27,0 -0.522,-0.134 -0.765,-0.345c-0.335,-0.291 -0.64,-0.72 -0.919,-1.254c-0.946,-1.807 -1.544,-4.728 -1.544,-8.016c0,-3.288 0.598,-6.208 1.544,-8.016c0.279,-0.533 0.584,-0.962 0.919,-1.253c0.243,-0.211 0.495,-0.345 0.765,-0.345Z" style="fill:url(#_Linear3);"/><path d="M23.13,18.885l-22.18,0c-0.016,0.248 -0.025,0.498 -0.025,0.75c0,0.252 0.009,0.503 0.025,0.75l22.18,0c0.016,-0.247 0.025,-0.498 0.025,-0.75c-0,-0.252 -0.009,-0.502 -0.025,-0.75Z" style="fill:url(#_Linear4);"/><path d="M25.402,5.474l0,3.806c0,0.414 0.336,0.75 0.75,0.75c0.414,-0 0.75,-0.336 0.75,-0.75l0,-3.806c0,-0.414 -0.336,-0.75 -0.75,-0.75c-0.414,-0 -0.75,0.336 -0.75,0.75Z" style="fill:url(#_Linear5);"/><path d="M26.152,8.076l1.303,-0c0.414,-0 0.75,-0.336 0.75,-0.75c0,-0.414 -0.336,-0.75 -0.75,-0.75l-1.303,-0c-0.414,-0 -0.75,0.336 -0.75,0.75c0,0.414 0.336,0.75 0.75,0.75Z" style="fill:url(#_Linear6);"/><path d="M26.152,6.224l1.639,-0c0.414,-0 0.75,-0.336 0.75,-0.75c0,-0.414 -0.336,-0.75 -0.75,-0.75l-1.639,-0c-0.414,-0 -0.75,0.336 -0.75,0.75c0,0.414 0.336,0.75 0.75,0.75Z" style="fill:url(#_Linear7);"/><circle cx="24.08" cy="5.474" r="0.75" style="fill:url(#_Linear8);"/><path d="M3.031,26.143c2.157,-1.081 5.343,-1.78 8.9,-1.78c3.645,-0 6.901,0.734 9.058,1.862c-0.306,0.415 -0.64,0.808 -1,1.175c-1.98,-0.951 -4.859,-1.537 -8.058,-1.537c-3.119,-0 -5.935,0.557 -7.909,1.467c-0.357,-0.372 -0.688,-0.769 -0.991,-1.187Z" style="fill:url(#_Linear9);"/><path d="M3.031,13.127c2.157,1.082 5.343,1.781 8.9,1.781c3.645,-0 6.901,-0.735 9.058,-1.862c-0.306,-0.415 -0.64,-0.808 -1,-1.176c-1.98,0.952 -4.859,1.538 -8.058,1.538c-3.119,-0 -5.935,-0.557 -7.909,-1.467c-0.357,0.372 -0.688,0.768 -0.991,1.186Z" style="fill:url(#_Linear10);"/><defs><linearGradient id="_Linear1" x1="0" y1="0" x2="1" y2="0" gradientUnits="userSpaceOnUse" gradientTransform="matrix(1.10218e-15,18,-18,1.10218e-15,26.22,13)"><stop offset="0" style="stop-color:#41b3e6;stop-opacity:1"/><stop offset="1" style="stop-color:#0080b9;stop-opacity:1"/></linearGradient><linearGradient id="_Linear2" x1="0" y1="0" x2="1" y2="0" gradientUnits="userSpaceOnUse" gradientTransform="matrix(1.53081e-15,25,-25,1.53081e-15,12.5,25)"><stop offset="0" style="stop-color:#6dbeff;stop-opacity:1"/><stop offset="1" style="stop-color:#0085f0;stop-opacity:1"/></linearGradient><linearGradient id="_Linear3" x1="0" y1="0" x2="1" y2="0" gradientUnits="userSpaceOnUse" gradientTransform="matrix(1.98793e-15,32.4653,-32.4653,1.98793e-15,13.2084,24.0347)"><stop offset="0" style="stop-color:#e2f4fd;stop-opacity:1"/><stop offset="1" style="stop-color:#4dc4ff;stop-opacity:1"/></linearGradient><linearGradient id="_Linear4" x1="0" y1="0" x2="1" y2="0" gradientUnits="userSpaceOnUse" gradientTransform="matrix(1.98793e-15,32.4653,-32.4653,1.98793e-15,13.2084,24.0347)"><stop offset="0" style="stop-color:#e2f4fd;stop-opacity:1"/><stop offset="1" style="stop-color:#4dc4ff;stop-opacity:1"/></linearGradient><linearGradient id="_Linear5" x1="0" y1="0" x2="1" y2="0" gradientUnits="userSpaceOnUse" gradientTransform="matrix(6.13101e-16,10.0127,-10.0127,6.13101e-16,25.5,7.9873)"><stop offset="0" style="stop-color:#e2f4fd;stop-opacity:1"/><stop offset="1" style="stop-color:#4dc4ff;stop-opacity:1"/></linearGradient><linearGradient id="_Linear6" x1="0" y1="0" x2="1" y2="0" gradientUnits="userSpaceOnUse" gradientTransform="matrix(6.13101e-16,10.0127,-10.0127,6.13101e-16,25.5,7.9873)"><stop offset="0" style="stop-color:#e2f4fd;stop-opacity:1"/><stop offset="1" style="stop-color:#4dc4ff;stop-opacity:1"/></linearGradient><linearGradient id="_Linear7" x1="0" y1="0" x2="1" y2="0" gradientUnits="userSpaceOnUse" gradientTransform="matrix(6.13101e-16,10.0127,-10.0127,6.13101e-16,25.5,7.9873)"><stop offset="0" style="stop-color:#e2f4fd;stop-opacity:1"/><stop offset="1" style="stop-color:#4dc4ff;stop-opacity:1"/></linearGradient><linearGradient id="_Linear8" x1="0" y1="0" x2="1" y2="0" gradientUnits="userSpaceOnUse" gradientTransform="matrix(6.13101e-16,10.0127,-10.0127,6.13101e-16,25.5,7.9873)"><stop offset="0" style="stop-color:#e2f4fd;stop-opacity:1"/><stop offset="1" style="stop-color:#4dc4ff;stop-opacity:1"/></linearGradient><linearGradient id="_Linear9" x1="0" y1="0" x2="1" y2="0" gradientUnits="userSpaceOnUse" gradientTransform="matrix(1.98793e-15,32.4653,-32.4653,1.98793e-15,13.2084,24.0347)"><stop offset="0" style="stop-color:#e2f4fd;stop-opacity:1"/><stop offset="1" style="stop-color:#4dc4ff;stop-opacity:1"/></linearGradient><linearGradient id="_Linear10" x1="0" y1="0" x2="1" y2="0" gradientUnits="userSpaceOnUse" gradientTransform="matrix(1.98793e-15,32.4653,-32.4653,1.98793e-15,13.2084,24.0347)"><stop offset="0" style="stop-color:#e2f4fd;stop-opacity:1"/><stop offset="1" style="stop-color:#4dc4ff;stop-opacity:1"/></linearGradient></defs></svg>