<?xml version="1.0" encoding="UTF-8" standalone="no"?><!DOCTYPE svg PUBLIC "-//W3C//DTD SVG 1.1//EN" "http://www.w3.org/Graphics/SVG/1.1/DTD/svg11.dtd"><svg width="100%" height="100%" viewBox="0 0 32 32" version="1.1" xmlns="http://www.w3.org/2000/svg" xmlns:xlink="http://www.w3.org/1999/xlink" xml:space="preserve" xmlns:serif="http://www.serif.com/" style="fill-rule:evenodd;clip-rule:evenodd;stroke-linejoin:round;stroke-miterlimit:2;"><path d="M25.249,7.769l-0,2.371c-0,0.414 0.336,0.75 0.75,0.75c0.414,-0 0.75,-0.336 0.75,-0.75l-0,-2.371c-0,-0.414 -0.336,-0.75 -0.75,-0.75c-0.414,0 -0.75,0.336 -0.75,0.75Z" style="fill:url(#_Linear1);"/><path d="M25.249,13.961l-0,2.37c-0,0.414 0.336,0.75 0.75,0.75c0.414,0 0.75,-0.336 0.75,-0.75l-0,-2.37c-0,-0.414 -0.336,-0.75 -0.75,-0.75c-0.414,-0 -0.75,0.336 -0.75,0.75Z" style="fill:url(#_Linear2);"/><path d="M18.389,2.81l2.62,0c0.414,0 0.75,-0.336 0.75,-0.75c-0,-0.413 -0.336,-0.75 -0.75,-0.75l-2.62,0c-0.414,0 -0.75,0.337 -0.75,0.75c-0,0.414 0.336,0.75 0.75,0.75Z" style="fill:url(#_Linear3);"/><path d="M26.176,4.663c-0,-1.519 -1.231,-2.75 -2.75,-2.75l-15.091,-0c-1.519,-0 -2.75,1.231 -2.75,2.75c0,5.052 0,18.285 0,23.337c0,1.519 1.231,2.75 2.75,2.75l15.091,-0c1.519,-0 2.75,-1.231 2.75,-2.75l-0,-23.337Z" style="fill:url(#_Linear4);"/><path d="M11.701,27.25l8.359,0c0.414,-0 0.75,-0.336 0.75,-0.75c-0,-0.414 -0.336,-0.75 -0.75,-0.75l-8.359,0c-0.414,-0 -0.75,0.336 -0.75,0.75c0,0.414 0.336,0.75 0.75,0.75Z" style="fill:url(#_Linear5);"/><path d="M12.681,10.836c-2.159,0.107 -3.879,1.894 -3.879,4.079c0,1.509 0.81,4.085 3.864,4.085c7.114,-0 7.114,0 7.114,-0c1.114,-0 1.96,-0.402 2.535,-1.02c0.573,-0.615 0.883,-1.459 0.883,-2.398c-0,0 -0,0 -0,0c-0,-1.672 -1.201,-3.064 -2.788,-3.359c-0.49,-1.854 -2.181,-3.223 -4.189,-3.223c-1.461,0 -2.755,0.725 -3.54,1.836Z" style="fill:url(#_Linear6);"/><defs><linearGradient id="_Linear1" x1="0" y1="0" x2="1" y2="0" gradientUnits="userSpaceOnUse" gradientTransform="matrix(-1.09854,1.34533e-16,-1.34533e-16,-1.09854,26.5643,8.79936)"><stop offset="0" style="stop-color:#e2f4fd;stop-opacity:1"/><stop offset="1" style="stop-color:#4dc4ff;stop-opacity:1"/></linearGradient><linearGradient id="_Linear2" x1="0" y1="0" x2="1" y2="0" gradientUnits="userSpaceOnUse" gradientTransform="matrix(-1.09854,1.34533e-16,-1.34533e-16,-1.09854,26.5643,8.79936)"><stop offset="0" style="stop-color:#e2f4fd;stop-opacity:1"/><stop offset="1" style="stop-color:#4dc4ff;stop-opacity:1"/></linearGradient><linearGradient id="_Linear3" x1="0" y1="0" x2="1" y2="0" gradientUnits="userSpaceOnUse" gradientTransform="matrix(8.13208e-17,1.32807,-1.32807,8.13208e-17,19.989,1.48238)"><stop offset="0" style="stop-color:#e2f4fd;stop-opacity:1"/><stop offset="1" style="stop-color:#4dc4ff;stop-opacity:1"/></linearGradient><linearGradient id="_Linear4" x1="0" y1="0" x2="1" y2="0" gradientUnits="userSpaceOnUse" gradientTransform="matrix(1.50896e-15,24.6433,-24.6433,1.50896e-15,15.6845,24.1361)"><stop offset="0" style="stop-color:#6dbeff;stop-opacity:1"/><stop offset="1" style="stop-color:#0085f0;stop-opacity:1"/></linearGradient><linearGradient id="_Linear5" x1="0" y1="0" x2="1" y2="0" gradientUnits="userSpaceOnUse" gradientTransform="matrix(2.26309e-16,3.69591,-3.69591,2.26309e-16,16.2404,26.5)"><stop offset="0" style="stop-color:#e2f4fd;stop-opacity:1"/><stop offset="1" style="stop-color:#4dc4ff;stop-opacity:1"/></linearGradient><linearGradient id="_Linear6" x1="0" y1="0" x2="1" y2="0" gradientUnits="userSpaceOnUse" gradientTransform="matrix(6.19162e-16,10.1117,-10.1117,6.19162e-16,16.5,16)"><stop offset="0" style="stop-color:#e2f4fd;stop-opacity:1"/><stop offset="1" style="stop-color:#4dc4ff;stop-opacity:1"/></linearGradient></defs></svg>