<?xml version="1.0" encoding="UTF-8" standalone="no"?><!DOCTYPE svg PUBLIC "-//W3C//DTD SVG 1.1//EN" "http://www.w3.org/Graphics/SVG/1.1/DTD/svg11.dtd"><svg width="100%" height="100%" viewBox="0 0 32 32" version="1.1" xmlns="http://www.w3.org/2000/svg" xmlns:xlink="http://www.w3.org/1999/xlink" xml:space="preserve" xmlns:serif="http://www.serif.com/" style="fill-rule:evenodd;clip-rule:evenodd;stroke-linejoin:round;stroke-miterlimit:2;"><path d="M30.75,6.471c-0,-1.518 -1.231,-2.75 -2.75,-2.75c-5.154,0 -18.846,0 -24,0c-1.519,0 -2.75,1.232 -2.75,2.75c0,4.364 0,14.694 0,19.058c0,1.518 1.231,2.75 2.75,2.75c5.154,-0 18.846,-0 24,-0c1.519,-0 2.75,-1.232 2.75,-2.75l-0,-19.058Z" style="fill:url(#_Linear1);"/><path d="M23.198,20.801c-0,0.938 -0.31,1.782 -0.883,2.397c-0.575,0.618 -1.421,1.02 -2.535,1.02c0,0 0,0 -7.114,0c-3.054,0 -3.864,-2.575 -3.864,-4.084c0,-2.186 1.72,-3.972 3.879,-4.08c0.785,-1.11 2.079,-1.836 3.54,-1.836c2.008,0 3.699,1.369 4.189,3.223c1.587,0.296 2.788,1.688 2.788,3.36l-0,-0Z" style="fill:url(#_Linear2);"/><path d="M1.25,10.834l29.5,0l-0,-4.363c-0,-1.518 -1.231,-2.75 -2.75,-2.75c-5.154,0 -18.846,0 -24,0c-1.519,0 -2.75,1.232 -2.75,2.75l0,4.363Z" style="fill:url(#_Linear3);"/><path d="M6.394,8.14l6.032,0c0.414,0 0.75,-0.336 0.75,-0.75c-0,-0.414 -0.336,-0.75 -0.75,-0.75l-6.032,0c-0.414,0 -0.75,0.336 -0.75,0.75c-0,0.414 0.336,0.75 0.75,0.75Z" style="fill:url(#_Linear4);"/><circle cx="26.043" cy="7.39" r="0.885" style="fill:url(#_Linear5);"/><circle cx="23.025" cy="7.39" r="0.885" style="fill:url(#_Linear6);"/><circle cx="20.007" cy="7.39" r="0.885" style="fill:url(#_Linear7);"/><defs><linearGradient id="_Linear1" x1="0" y1="0" x2="1" y2="0" gradientUnits="userSpaceOnUse" gradientTransform="matrix(5.08464e-16,-8.30385,8.30385,5.08464e-16,17.085,12.9781)"><stop offset="0" style="stop-color:#6dbeff;stop-opacity:1"/><stop offset="1" style="stop-color:#0085f0;stop-opacity:1"/></linearGradient><linearGradient id="_Linear2" x1="0" y1="0" x2="1" y2="0" gradientUnits="userSpaceOnUse" gradientTransform="matrix(1.28588e-15,21,-21,1.28588e-15,16.5,20.5)"><stop offset="0" style="stop-color:#e2f4fd;stop-opacity:1"/><stop offset="1" style="stop-color:#4dc4ff;stop-opacity:1"/></linearGradient><linearGradient id="_Linear3" x1="0" y1="0" x2="1" y2="0" gradientUnits="userSpaceOnUse" gradientTransform="matrix(7.95641e-16,12.9938,-12.9938,7.95641e-16,16.5314,8.5062)"><stop offset="0" style="stop-color:#e2f4fd;stop-opacity:1"/><stop offset="1" style="stop-color:#4dc4ff;stop-opacity:1"/></linearGradient><linearGradient id="_Linear4" x1="0" y1="0" x2="1" y2="0" gradientUnits="userSpaceOnUse" gradientTransform="matrix(3.00841e-16,4.9131,-4.9131,3.00841e-16,9.40974,7.20802)"><stop offset="0" style="stop-color:#6d6daa;stop-opacity:1"/><stop offset="1" style="stop-color:#2a2a82;stop-opacity:1"/></linearGradient><linearGradient id="_Linear5" x1="0" y1="0" x2="1" y2="0" gradientUnits="userSpaceOnUse" gradientTransform="matrix(3.53313e-16,5.77004,-5.77004,3.53313e-16,25.5,7.20802)"><stop offset="0" style="stop-color:#6dbeff;stop-opacity:1"/><stop offset="1" style="stop-color:#0085f0;stop-opacity:1"/></linearGradient><linearGradient id="_Linear6" x1="0" y1="0" x2="1" y2="0" gradientUnits="userSpaceOnUse" gradientTransform="matrix(3.53313e-16,5.77004,-5.77004,3.53313e-16,25.5,7.20802)"><stop offset="0" style="stop-color:#6dbeff;stop-opacity:1"/><stop offset="1" style="stop-color:#0085f0;stop-opacity:1"/></linearGradient><linearGradient id="_Linear7" x1="0" y1="0" x2="1" y2="0" gradientUnits="userSpaceOnUse" gradientTransform="matrix(3.53313e-16,5.77004,-5.77004,3.53313e-16,25.5,7.20802)"><stop offset="0" style="stop-color:#6dbeff;stop-opacity:1"/><stop offset="1" style="stop-color:#0085f0;stop-opacity:1"/></linearGradient></defs></svg>