<?xml version="1.0" encoding="UTF-8" standalone="no"?><!DOCTYPE svg PUBLIC "-//W3C//DTD SVG 1.1//EN" "http://www.w3.org/Graphics/SVG/1.1/DTD/svg11.dtd"><svg width="100%" height="100%" viewBox="0 0 32 32" version="1.1" xmlns="http://www.w3.org/2000/svg" xmlns:xlink="http://www.w3.org/1999/xlink" xml:space="preserve" xmlns:serif="http://www.serif.com/" style="fill-rule:evenodd;clip-rule:evenodd;stroke-linejoin:round;stroke-miterlimit:2;"><path d="M18.163,2.557l-0.401,2.498c-0.065,0.409 0.213,0.794 0.622,0.859c0.409,0.066 0.794,-0.213 0.859,-0.622l0.401,-2.497c0.065,-0.409 -0.213,-0.794 -0.622,-0.859c-0.409,-0.066 -0.794,0.213 -0.859,0.621Z" style="fill:url(#_Linear1);"/><path d="M23.646,4.586l-1.595,1.963c-0.262,0.321 -0.213,0.794 0.108,1.055c0.322,0.261 0.794,0.212 1.056,-0.109l1.595,-1.963c0.261,-0.321 0.212,-0.794 -0.109,-1.055c-0.321,-0.261 -0.794,-0.212 -1.055,0.109Z" style="fill:url(#_Linear2);"/><path d="M27.381,9.084l-2.363,0.902c-0.387,0.148 -0.581,0.582 -0.434,0.968c0.148,0.387 0.582,0.581 0.968,0.434l2.364,-0.902c0.386,-0.148 0.581,-0.582 0.433,-0.968c-0.148,-0.387 -0.582,-0.581 -0.968,-0.434Z" style="fill:url(#_Linear3);"/><path d="M28.366,14.847l-2.498,-0.4c-0.409,-0.066 -0.794,0.213 -0.859,0.622c-0.066,0.409 0.213,0.794 0.622,0.859l2.497,0.401c0.409,0.065 0.794,-0.214 0.86,-0.622c0.065,-0.409 -0.213,-0.794 -0.622,-0.86Z" style="fill:url(#_Linear4);"/><path d="M26.337,20.331l-1.962,-1.596c-0.322,-0.261 -0.794,-0.212 -1.056,0.109c-0.261,0.321 -0.212,0.794 0.109,1.055l1.963,1.596c0.321,0.261 0.794,0.212 1.055,-0.109c0.261,-0.321 0.213,-0.794 -0.109,-1.055Z" style="fill:url(#_Linear5);"/><path d="M21.839,24.066l-0.902,-2.364c-0.148,-0.386 -0.582,-0.58 -0.968,-0.433c-0.387,0.148 -0.581,0.582 -0.434,0.968l0.902,2.363c0.148,0.387 0.582,0.581 0.969,0.434c0.386,-0.148 0.58,-0.582 0.433,-0.968Z" style="fill:url(#_Linear6);"/><path d="M13.085,8.425c-0.188,0.141 -0.298,0.363 -0.298,0.598l-0,9.216c-0,0.259 0.134,0.5 0.354,0.637c0.447,0.277 0.851,0.614 1.203,1c0.076,0.083 0.169,0.148 0.273,0.19c0.463,0.187 0.954,0.326 1.468,0.408c3.678,0.59 7.143,-1.918 7.733,-5.596c0.59,-3.679 -1.918,-7.144 -5.597,-7.733c-1.888,-0.303 -3.72,0.21 -5.136,1.28Z" style="fill:url(#_Linear7);"/><path d="M14.287,17.836l-0,-12.416c-0,-1.09 -0.433,-2.135 -1.204,-2.906c-0.771,-0.771 -1.816,-1.204 -2.906,-1.204c-1.09,0 -2.136,0.433 -2.907,1.204c-0.77,0.771 -1.203,1.816 -1.203,2.906c-0,0 -0,12.416 -0,12.416c-1.832,1.292 -3.029,3.425 -3.029,5.836c0,3.94 3.199,7.138 7.139,7.138c3.94,0 7.138,-3.198 7.138,-7.138c0,-2.41 -1.197,-4.543 -3.028,-5.836Z" style="fill:url(#_Linear8);"/><path d="M5.951,23.29c-0.088,0.131 -0.098,0.261 -0.098,0.396c-0,2.387 1.937,4.324 4.324,4.324c2.386,0 4.324,-1.937 4.324,-4.324c-0,-0.357 -0.044,-0.704 -0.126,-1.036c0,0 -0.053,-0.207 -0.218,-0.371c-0,-0 -0.001,-0.001 -0.001,-0.001c-0.785,-0.785 -1.518,-1.061 -2.155,-1.089c-0.967,-0.042 -1.776,0.512 -2.355,1.091c-0.43,0.431 -1.224,0.809 -2.01,0.374c-0.361,-0.203 -0.808,-0.199 -1.17,0.013c-0.243,0.143 -0.423,0.365 -0.515,0.623Z" style="fill:url(#_Linear9);"/><path d="M14.402,23.29c0.088,0.131 0.099,0.261 0.099,0.396c-0,2.387 -1.938,4.324 -4.324,4.324c-2.387,0 -4.324,-1.937 -4.324,-4.324c-0,-0.357 0.043,-0.704 0.125,-1.036c-0,0 0.053,-0.207 0.218,-0.371c0,-0 0.001,-0.001 0.001,-0.001c0.786,-0.785 1.519,-1.061 2.156,-1.089c0.966,-0.042 1.775,0.512 2.354,1.091c0.431,0.431 1.224,0.809 2.01,0.374c0.362,-0.203 0.808,-0.199 1.17,0.013c0.243,0.143 0.424,0.365 0.515,0.623Z" style="fill:url(#_Linear10);"/><path d="M14.287,15.31l-2.75,0c-0.414,0 -0.75,0.337 -0.75,0.75c-0,0.414 0.336,0.75 0.75,0.75l2.75,0l-0,-1.5Zm-0,-3.36l-2.75,0c-0.414,0 -0.75,0.337 -0.75,0.75c-0,0.414 0.336,0.75 0.75,0.75l2.75,0l-0,-1.5Zm-0,-3.36l-2.75,0c-0.414,0 -0.75,0.337 -0.75,0.75c-0,0.414 0.336,0.75 0.75,0.75l2.75,0l-0,-1.5Zm-0.005,-3.36l-2.745,0c-0.414,0 -0.75,0.337 -0.75,0.75c-0,0.414 0.336,0.75 0.75,0.75l2.75,0l-0,-1.31c-0,-0.063 -0.002,-0.126 -0.005,-0.19Z" style="fill:url(#_Linear11);"/><defs><linearGradient id="_Linear1" x1="0" y1="0" x2="1" y2="0" gradientUnits="userSpaceOnUse" gradientTransform="matrix(-1.46818,6.57515,-6.57515,-1.46818,18.7029,3.92485)"><stop offset="0" style="stop-color:#fcd935;stop-opacity:1"/><stop offset="1" style="stop-color:#c19f00;stop-opacity:1"/></linearGradient><linearGradient id="_Linear2" x1="0" y1="0" x2="1" y2="0" gradientUnits="userSpaceOnUse" gradientTransform="matrix(-3.82987,5.5,-5.5,-3.82987,23.3299,6)"><stop offset="0" style="stop-color:#fcd935;stop-opacity:1"/><stop offset="1" style="stop-color:#c19f00;stop-opacity:1"/></linearGradient><linearGradient id="_Linear3" x1="0" y1="0" x2="1" y2="0" gradientUnits="userSpaceOnUse" gradientTransform="matrix(-5.94177,2.28456,-2.28456,-5.94177,26.6141,10.236)"><stop offset="0" style="stop-color:#fcd935;stop-opacity:1"/><stop offset="1" style="stop-color:#c19f00;stop-opacity:1"/></linearGradient><linearGradient id="_Linear4" x1="0" y1="0" x2="1" y2="0" gradientUnits="userSpaceOnUse" gradientTransform="matrix(-7.97173,-1.86584,1.86584,-7.97173,26.9717,15.3878)"><stop offset="0" style="stop-color:#fcd935;stop-opacity:1"/><stop offset="1" style="stop-color:#c19f00;stop-opacity:1"/></linearGradient><linearGradient id="_Linear5" x1="0" y1="0" x2="1" y2="0" gradientUnits="userSpaceOnUse" gradientTransform="matrix(-4.82987,-3.93955,3.93955,-4.82987,24.8299,20)"><stop offset="0" style="stop-color:#fcd935;stop-opacity:1"/><stop offset="1" style="stop-color:#c19f00;stop-opacity:1"/></linearGradient><linearGradient id="_Linear6" x1="0" y1="0" x2="1" y2="0" gradientUnits="userSpaceOnUse" gradientTransform="matrix(-1.9842,-5.70919,5.70919,-1.9842,20.6871,23.5)"><stop offset="0" style="stop-color:#fcd935;stop-opacity:1"/><stop offset="1" style="stop-color:#c19f00;stop-opacity:1"/></linearGradient><linearGradient id="_Linear7" x1="0" y1="0" x2="1" y2="0" gradientUnits="userSpaceOnUse" gradientTransform="matrix(-13.2526,4,-4,-13.2526,17.7526,13.5)"><stop offset="0" style="stop-color:#fcd935;stop-opacity:1"/><stop offset="1" style="stop-color:#c19f00;stop-opacity:1"/></linearGradient><linearGradient id="_Linear8" x1="0" y1="0" x2="1" y2="0" gradientUnits="userSpaceOnUse" gradientTransform="matrix(1.65327e-15,27,-27,1.65327e-15,10.4152,25)"><stop offset="0" style="stop-color:#6dbeff;stop-opacity:1"/><stop offset="1" style="stop-color:#0085f0;stop-opacity:1"/></linearGradient><linearGradient id="_Linear9" x1="0" y1="0" x2="1" y2="0" gradientUnits="userSpaceOnUse" gradientTransform="matrix(-0.443676,3.66304,-3.66304,-0.443676,12.7867,21.6628)"><stop offset="0" style="stop-color:#e2f4fd;stop-opacity:1"/><stop offset="1" style="stop-color:#4dc4ff;stop-opacity:1"/></linearGradient><linearGradient id="_Linear10" x1="0" y1="0" x2="1" y2="0" gradientUnits="userSpaceOnUse" gradientTransform="matrix(-6.96604e-16,11.3764,11.3764,6.96604e-16,9.32503,25)"><stop offset="0" style="stop-color:#e2f4fd;stop-opacity:1"/><stop offset="1" style="stop-color:#4dc4ff;stop-opacity:1"/></linearGradient><linearGradient id="_Linear11" x1="0" y1="0" x2="1" y2="0" gradientUnits="userSpaceOnUse" gradientTransform="matrix(9.59463e-16,15.6692,-15.6692,9.59463e-16,13.5,12.8308)"><stop offset="0" style="stop-color:#e2f4fd;stop-opacity:1"/><stop offset="1" style="stop-color:#4dc4ff;stop-opacity:1"/></linearGradient></defs></svg>