<?xml version="1.0" encoding="UTF-8" standalone="no"?><!DOCTYPE svg PUBLIC "-//W3C//DTD SVG 1.1//EN" "http://www.w3.org/Graphics/SVG/1.1/DTD/svg11.dtd"><svg width="100%" height="100%" viewBox="0 0 32 32" version="1.1" xmlns="http://www.w3.org/2000/svg" xmlns:xlink="http://www.w3.org/1999/xlink" xml:space="preserve" xmlns:serif="http://www.serif.com/" style="fill-rule:evenodd;clip-rule:evenodd;stroke-linejoin:round;stroke-miterlimit:2;"><circle cx="16" cy="15.979" r="14.75" style="fill:url(#_Linear1);"/><circle cx="16" cy="15.979" r="11.445" style="fill:url(#_Linear2);"/><path d="M15.25,8l0,1.5c0,0.414 0.336,0.75 0.75,0.75c0.414,-0 0.75,-0.336 0.75,-0.75l0,-1.5c0,-0.414 -0.336,-0.75 -0.75,-0.75c-0.414,-0 -0.75,0.336 -0.75,0.75Z" style="fill:url(#_Linear3);"/><path d="M21.127,9.813l-1.061,1.06c-0.293,0.293 -0.293,0.768 -0,1.061c0.293,0.293 0.768,0.293 1.061,0l1.06,-1.061c0.293,-0.292 0.293,-0.767 0,-1.06c-0.293,-0.293 -0.768,-0.293 -1.06,-0Z" style="fill:url(#_Linear4);"/><path d="M24,15.25l-1.5,-0c-0.414,0 -0.75,0.336 -0.75,0.75c0,0.414 0.336,0.75 0.75,0.75l1.5,-0c0.414,0 0.75,-0.336 0.75,-0.75c0,-0.414 -0.336,-0.75 -0.75,-0.75Z" style="fill:url(#_Linear5);"/><path d="M22.187,21.127l-1.06,-1.061c-0.293,-0.293 -0.768,-0.293 -1.061,-0c-0.293,0.293 -0.293,0.768 -0,1.061l1.061,1.06c0.292,0.293 0.767,0.293 1.06,0c0.293,-0.293 0.293,-0.768 0,-1.06Z" style="fill:url(#_Linear6);"/><path d="M16.75,24l0,-1.5c0,-0.414 -0.336,-0.75 -0.75,-0.75c-0.414,-0 -0.75,0.336 -0.75,0.75l0,1.5c0,0.414 0.336,0.75 0.75,0.75c0.414,-0 0.75,-0.336 0.75,-0.75Z" style="fill:url(#_Linear7);"/><path d="M10.873,22.187l1.061,-1.06c0.293,-0.293 0.293,-0.768 0,-1.061c-0.293,-0.293 -0.768,-0.293 -1.061,-0l-1.06,1.061c-0.293,0.292 -0.293,0.767 -0,1.06c0.293,0.293 0.768,0.293 1.06,0Z" style="fill:url(#_Linear8);"/><path d="M8,16.75l1.5,-0c0.414,0 0.75,-0.336 0.75,-0.75c0,-0.414 -0.336,-0.75 -0.75,-0.75l-1.5,-0c-0.414,0 -0.75,0.336 -0.75,0.75c0,0.414 0.336,0.75 0.75,0.75Z" style="fill:url(#_Linear9);"/><path d="M9.813,10.873l1.06,1.061c0.293,0.293 0.768,0.293 1.061,0c0.293,-0.293 0.293,-0.768 0,-1.061l-1.061,-1.06c-0.292,-0.293 -0.767,-0.293 -1.06,-0c-0.293,0.293 -0.293,0.768 -0,1.06Z" style="fill:url(#_Linear10);"/><circle cx="16" cy="15.979" r="3.712" style="fill:url(#_Linear11);"/><defs><linearGradient id="_Linear1" x1="0" y1="0" x2="1" y2="0" gradientUnits="userSpaceOnUse" gradientTransform="matrix(1.28588e-15,21,-21,1.28588e-15,17.104,23.5)"><stop offset="0" style="stop-color:#6dbeff;stop-opacity:1"/><stop offset="1" style="stop-color:#0085f0;stop-opacity:1"/></linearGradient><linearGradient id="_Linear2" x1="0" y1="0" x2="1" y2="0" gradientUnits="userSpaceOnUse" gradientTransform="matrix(2.31978e-15,37.8849,-37.8849,2.31978e-15,17.104,20.1151)"><stop offset="0" style="stop-color:#e2f4fd;stop-opacity:1"/><stop offset="1" style="stop-color:#4dc4ff;stop-opacity:1"/></linearGradient><linearGradient id="_Linear3" x1="0" y1="0" x2="1" y2="0" gradientUnits="userSpaceOnUse" gradientTransform="matrix(-0.0269472,6.9786,-6.9786,-0.0269472,16.0269,9)"><stop offset="0" style="stop-color:#fcd935;stop-opacity:1"/><stop offset="1" style="stop-color:#c19f00;stop-opacity:1"/></linearGradient><linearGradient id="_Linear4" x1="0" y1="0" x2="1" y2="0" gradientUnits="userSpaceOnUse" gradientTransform="matrix(-3,3.16639,-3.16639,-3,21,11)"><stop offset="0" style="stop-color:#fcd935;stop-opacity:1"/><stop offset="1" style="stop-color:#c19f00;stop-opacity:1"/></linearGradient><linearGradient id="_Linear5" x1="0" y1="0" x2="1" y2="0" gradientUnits="userSpaceOnUse" gradientTransform="matrix(-7.31308,8.95594e-16,-8.95594e-16,-7.31308,23.3131,15.9786)"><stop offset="0" style="stop-color:#fcd935;stop-opacity:1"/><stop offset="1" style="stop-color:#c19f00;stop-opacity:1"/></linearGradient><linearGradient id="_Linear6" x1="0" y1="0" x2="1" y2="0" gradientUnits="userSpaceOnUse" gradientTransform="matrix(-4.63464,-4.94778,4.94778,-4.63464,21.25,21.2197)"><stop offset="0" style="stop-color:#fcd935;stop-opacity:1"/><stop offset="1" style="stop-color:#c19f00;stop-opacity:1"/></linearGradient><linearGradient id="_Linear7" x1="0" y1="0" x2="1" y2="0" gradientUnits="userSpaceOnUse" gradientTransform="matrix(3.3595e-16,-5.48648,5.48648,3.3595e-16,16.0269,22.9865)"><stop offset="0" style="stop-color:#fcd935;stop-opacity:1"/><stop offset="1" style="stop-color:#c19f00;stop-opacity:1"/></linearGradient><linearGradient id="_Linear8" x1="0" y1="0" x2="1" y2="0" gradientUnits="userSpaceOnUse" gradientTransform="matrix(3.24999,-3.62652,3.62652,3.24999,10.75,21.1265)"><stop offset="0" style="stop-color:#fcd935;stop-opacity:1"/><stop offset="1" style="stop-color:#c19f00;stop-opacity:1"/></linearGradient><linearGradient id="_Linear9" x1="0" y1="0" x2="1" y2="0" gradientUnits="userSpaceOnUse" gradientTransform="matrix(8.69759,0,0,8.69759,9,15.9786)"><stop offset="0" style="stop-color:#fcd935;stop-opacity:1"/><stop offset="1" style="stop-color:#c19f00;stop-opacity:1"/></linearGradient><linearGradient id="_Linear10" x1="0" y1="0" x2="1" y2="0" gradientUnits="userSpaceOnUse" gradientTransform="matrix(3.71142,4,-4,3.71142,11,11)"><stop offset="0" style="stop-color:#fcd935;stop-opacity:1"/><stop offset="1" style="stop-color:#c19f00;stop-opacity:1"/></linearGradient><linearGradient id="_Linear11" x1="0" y1="0" x2="1" y2="0" gradientUnits="userSpaceOnUse" gradientTransform="matrix(1.37904e-15,22.5214,-22.5214,1.37904e-15,16.3768,15.9786)"><stop offset="0" style="stop-color:#fcd935;stop-opacity:1"/><stop offset="1" style="stop-color:#c19f00;stop-opacity:1"/></linearGradient></defs></svg>